<svg xmlns="http://www.w3.org/2000/svg" width="256" height="103" viewBox="0 0 256 103" version="1.1">
	<path d="M 24.443 11.327 C 13.961 17.472, 4.173 23.298, 2.693 24.273 L -0 26.046 -0 51.455 L -0 76.864 2.750 78.774 C 9.915 83.752, 44.350 103.079, 45.358 102.689 C 48.391 101.516, 88.594 77.661, 89.235 76.654 C 89.639 76.019, 89.969 64.700, 89.969 51.500 C 89.969 38.300, 89.639 26.988, 89.235 26.363 C 88.383 25.045, 45.507 -0.038, 44.304 0.077 C 43.862 0.120, 34.924 5.183, 24.443 11.327 M 23.500 14.999 L 3.500 26.805 3.500 51.596 L 3.500 76.387 20.500 86.267 C 29.850 91.701, 39.088 97.040, 41.028 98.132 L 44.556 100.119 65.028 88.155 L 85.500 76.191 85.767 51.686 L 86.035 27.181 66.017 15.559 C 55.007 9.167, 45.437 3.769, 44.749 3.564 C 44.062 3.359, 34.500 8.505, 23.500 14.999 M 25.271 18.822 L 7.043 29.500 7.023 51.500 L 7.004 73.500 25.201 84 C 35.209 89.775, 43.735 94.642, 44.147 94.816 C 44.559 94.990, 53.244 90.271, 63.448 84.329 L 82 73.526 82 51.480 L 82 29.433 63.846 18.967 C 53.861 13.210, 45.199 8.420, 44.596 8.322 C 43.993 8.224, 35.297 12.949, 25.271 18.822 M 52.708 25.653 C 50.622 26.530, 49.049 27.646, 49.211 28.133 C 49.373 28.620, 52.430 30.781, 56.003 32.935 L 62.500 36.852 62.806 34.030 C 62.974 32.478, 62.723 29.699, 62.248 27.854 C 61.217 23.848, 58.494 23.220, 52.708 25.653 M 41.811 34.750 C 36.697 40.016, 32.059 48.550, 29.469 57.460 L 27.766 63.315 30.133 65.119 C 31.435 66.111, 34.593 68.069, 37.150 69.470 L 41.800 72.016 46.394 67.551 C 54.207 59.958, 62 45.917, 62 39.432 C 62 38.282, 49.083 30, 47.288 30 C 46.813 30, 44.349 32.138, 41.811 34.750 M 96 52 L 96 72 119.929 72 C 147.790 72, 147 72.263, 147 63.005 C 147 58.336, 146.526 56.582, 144.654 54.327 C 142.529 51.766, 142.430 51.217, 143.609 48.500 C 145.410 44.347, 145.324 36.907, 143.443 34.223 C 141.912 32.036, 141.519 32, 118.943 32 L 96 32 96 52 M 155.571 33.571 C 154.369 34.774, 154 37.319, 154 44.416 C 154 57.350, 153.218 56.885, 175.552 57.226 C 192.742 57.488, 193.500 57.584, 193.500 59.500 C 193.500 61.425, 192.743 61.510, 173.250 61.771 L 153 62.041 153 67.021 L 153 72 176.845 72 C 205.599 72, 204.008 72.738, 203.985 59.421 C 203.976 54.515, 203.544 49.825, 203.023 49 C 202.256 47.784, 198.515 47.405, 183.289 47 C 165.333 46.522, 164.500 46.411, 164.500 44.500 C 164.500 42.579, 165.257 42.489, 183.750 42.228 L 203 41.957 203 36.978 L 203 32 180.071 32 C 160.561 32, 156.909 32.234, 155.571 33.571 M 215.750 33.080 C 212.050 35.235, 211 39.395, 211 51.903 C 211 71.776, 211.295 72, 237.450 72 L 256 72 256 67.024 L 256 62.047 238.750 61.774 C 221.717 61.503, 221.496 61.472, 221.180 59.250 L 220.861 57 237.430 57 L 254 57 254 52 L 254 47 237.430 47 L 220.861 47 221.180 44.750 C 221.496 42.532, 221.736 42.496, 238.250 42.226 L 255 41.952 255 36.976 L 255 32 236.250 32.030 C 225.384 32.048, 216.764 32.489, 215.750 33.080 M 106 44.500 L 106 47 119.893 47 C 131.670 47, 133.879 46.758, 134.396 45.410 C 134.732 44.535, 134.753 43.410, 134.444 42.910 C 134.135 42.409, 127.609 42, 119.941 42 L 106 42 106 44.500 M 27.970 48.714 C 23.727 51.905, 14 61.196, 14 62.058 C 14 62.403, 16.871 62.778, 20.380 62.891 L 26.759 63.098 27.459 59.299 C 27.843 57.210, 29.028 53.518, 30.091 51.095 C 31.154 48.673, 31.893 46.559, 31.732 46.398 C 31.571 46.237, 29.878 47.280, 27.970 48.714 M 106 59.500 L 106 62.053 120.750 61.777 C 134.741 61.514, 135.500 61.397, 135.500 59.500 C 135.500 57.603, 134.741 57.486, 120.750 57.223 L 106 56.947 106 59.500 M 54.079 60.640 C 54.036 61.267, 51.530 64.290, 48.511 67.358 L 43.021 72.935 46.465 78.652 C 49.895 84.346, 49.913 84.359, 50.915 81.723 C 52.427 77.748, 55.208 62.086, 54.648 60.706 C 54.312 59.879, 54.133 59.858, 54.079 60.640" stroke="none" fill="#000000" fill-rule="evenodd"/>
</svg>